[Header]
FileType HTR
DataType HTRS
FileVersion 1
NumSegments 64
NumFrames 4
DataFrameRate 30
EulerRotationOrder ZYX
CalibrationUnits mm
RotationUnits Degrees
GlobalAxisofGravity Y
BoneLengthAxis Y
ScaleFactor 1.0
[SegmentNames&Hierarchy]
Hips	GLOBAL
Spine	Hips
Spine1	Spine
Spine2	Spine1
Neck	Spine2
Head	Neck
LeftEye	Head
RightEye	Head
LeftShoulder	Spine2
LeftArm	LeftShoulder
LeftForeArm	LeftArm
LeftHand	LeftForeArm
LeftHandThumb1	LeftHand
LeftHandThumb2	LeftHandThumb1
LeftHandThumb3	LeftHandThumb2
LeftHandThumb4	LeftHandThumb3
LeftHandIndex1	LeftHand
LeftHandIndex2	LeftHandIndex1
LeftHandIndex3	LeftHandIndex2
LeftHandIndex4	LeftHandIndex3
LeftHandMiddle1	LeftHand
LeftHandMiddle2	LeftHandMiddle1
LeftHandMiddle3	LeftHandMiddle2
LeftHandMiddle4	LeftHandMiddle3
LeftHandRing1	LeftHand
LeftHandRing2	LeftHandRing1
LeftHandRing3	LeftHandRing2
LeftHandRing4	LeftHandRing3
LeftHandPinky1	LeftHand
LeftHandPinky2	LeftHandPinky1
LeftHandPinky3	LeftHandPinky2
LeftHandPinky4	LeftHandPinky3
RightShoulder	Spine2
RightArm	RightShoulder
RightForeArm	RightArm
RightHand	RightForeArm
RightHandPinky1	RightHand
RightHandPinky2	RightHandPinky1
RightHandPinky3	RightHandPinky2
RightHandPinky4	RightHandPinky3
RightHandRing1	RightHand
RightHandRing2	RightHandRing1
RightHandRing3	RightHandRing2
RightHandRing4	RightHandRing3
RightHandMiddle1	RightHand
RightHandMiddle2	RightHandMiddle1
RightHandMiddle3	RightHandMiddle2
RightHandMiddle4	RightHandMiddle3
RightHandIndex1	RightHand
RightHandIndex2	RightHandIndex1
RightHandIndex3	RightHandIndex2
RightHandIndex4	RightHandIndex3
RightHandThumb1	RightHand
RightHandThumb2	RightHandThumb1
RightHandThumb3	RightHandThumb2
RightHandThumb4	RightHandThumb3
LeftUpLeg	Hips
LeftLeg	LeftUpLeg
LeftFoot	LeftLeg
LeftToeBase	LeftFoot
RightUpLeg	Hips
RightLeg	RightUpLeg
RightFoot	RightLeg
RightToeBase	RightFoot
[BasePosition]
Hips	0	0	0	0	0	0	1
Spine	0	0	0	0	0	0	1
Spine1	0	0	0	0	0	0	1
Spine2	0	0	0	0	0	0	1
Neck	0	0	0	0	0	0	1
Head	0	0	0	0	0	0	1
LeftEye	0	0	0	0	0	0	1
RightEye	0	0	0	0	0	0	1
LeftShoulder	0	0	0	0	0	0	1
LeftArm	0	0	0	0	0	0	1
LeftForeArm	0	0	0	0	0	0	1
LeftHand	0	0	0	0	0	0	1
LeftHandThumb1	0	0	0	0	0	0	1
LeftHandThumb2	0	0	0	0	0	0	1
LeftHandThumb3	0	0	0	0	0	0	1
LeftHandThumb4	0	0	0	0	0	0	1
LeftHandIndex1	0	0	0	0	0	0	1
LeftHandIndex2	0	0	0	0	0	0	1
LeftHandIndex3	0	0	0	0	0	0	1
LeftHandIndex4	0	0	0	0	0	0	1
LeftHandMiddle1	0	0	0	0	0	0	1
LeftHandMiddle2	0	0	0	0	0	0	1
LeftHandMiddle3	0	0	0	0	0	0	1
LeftHandMiddle4	0	0	0	0	0	0	1
LeftHandRing1	0	0	0	0	0	0	1
LeftHandRing2	0	0	0	0	0	0	1
LeftHandRing3	0	0	0	0	0	0	1
LeftHandRing4	0	0	0	0	0	0	1
LeftHandPinky1	0	0	0	0	0	0	1
LeftHandPinky2	0	0	0	0	0	0	1
LeftHandPinky3	0	0	0	0	0	0	1
LeftHandPinky4	0	0	0	0	0	0	1
RightShoulder	0	0	0	0	0	0	1
RightArm	0	0	0	0	0	0	1
RightForeArm	0	0	0	0	0	0	1
RightHand	0	0	0	0	0	0	1
RightHandPinky1	0	0	0	0	0	0	1
RightHandPinky2	0	0	0	0	0	0	1
RightHandPinky3	0	0	0	0	0	0	1
RightHandPinky4	0	0	0	0	0	0	1
RightHandRing1	0	0	0	0	0	0	1
RightHandRing2	0	0	0	0	0	0	1
RightHandRing3	0	0	0	0	0	0	1
RightHandRing4	0	0	0	0	0	0	1
RightHandMiddle1	0	0	0	0	0	0	1
RightHandMiddle2	0	0	0	0	0	0	1
RightHandMiddle3	0	0	0	0	0	0	1
RightHandMiddle4	0	0	0	0	0	0	1
RightHandIndex1	0	0	0	0	0	0	1
RightHandIndex2	0	0	0	0	0	0	1
RightHandIndex3	0	0	0	0	0	0	1
RightHandIndex4	0	0	0	0	0	0	1
RightHandThumb1	0	0	0	0	0	0	1
RightHandThumb2	0	0	0	0	0	0	1
RightHandThumb3	0	0	0	0	0	0	1
RightHandThumb4	0	0	0	0	0	0	1
LeftUpLeg	0	0	0	0	0	0	1
LeftLeg	0	0	0	0	0	0	1
LeftFoot	0	0	0	0	0	0	1
LeftToeBase	0	0	0	0	0	0	1
RightUpLeg	0	0	0	0	0	0	1
RightLeg	0	0	0	0	0	0	1
RightFoot	0	0	0	0	0	0	1
RightToeBase	0	0	0	0	0	0	1
[Hips]
34	-25.24424553	808.5241089	-343.4248352	16.29335022	-7.261711597	1.611090183	1.0
35	-31.11159897	739.378418	-377.6052856	20.18799019	-6.408336639	0.3815169334	1.0
36	-36.2050209	684.4180298	-406.3881226	23.32637787	-4.71036005	-0.2675009072	1.0
37	-40.87965012	648.3206177	-431.5630798	23.18634987	-3.522521019	-0.9688277245	1.0
[Spine]
34	0	101.8159943	1.315000057	4.701241016	-0.3884257674	-1.21000278	1.0
35	0	101.8159943	1.315000057	4.87747097	-0.2844556868	-1.156702876	1.0
36	0	101.8159943	1.315000057	5.025211334	-0.3745395243	-1.223787427	1.0
37	0	101.8159943	1.315000057	5.892083645	-0.2394982427	-1.327706933	1.0
[Spine1]
34	0	100.8349991	-10.00800037	9.407799721	-0.6162694097	-2.433745146	1.0
35	0	100.8349991	-10.00800037	9.766619682	-0.6300585866	-2.740360498	1.0
36	0	100.8349991	-10.00800037	10.07203388	-0.9763826728	-2.998629093	1.0
37	0	100.8349991	-10.00800037	11.8085022	-0.8016342521	-3.268950939	1.0
[Spine2]
34	0	91	-13.73399925	9.407794952	-0.6162731647	-2.433743	1.0
35	0	91	-13.73399925	9.766605377	-0.6300575733	-2.740360022	1.0
36	0	91	-13.73399925	10.07203579	-0.9763823748	-2.998629093	1.0
37	0	91	-13.73399925	11.80850697	-0.8016358614	-3.268951416	1.0
[Neck]
34	0	166.7169952	-25.16200066	7.763562679	1.295716286	0.4712767601	1.0
35	0	166.7169952	-25.16200066	6.97614193	1.296930671	0.7034615874	1.0
36	0	166.7169952	-25.16200066	6.766990662	1.223842144	1.074079871	1.0
37	0	166.7169952	-25.16200066	5.546630383	1.085845709	1.622992873	1.0
[Head]
34	0	96.17900085	16.84999847	-35.60076141	5.833530426	-1.013741374	1.0
35	0	96.17900085	16.84999847	-40.20793152	5.913642883	-0.5798016787	1.0
36	0	96.17900085	16.84999847	-44.30350876	5.598988056	-0.6452584267	1.0
37	0	96.17900085	16.84999847	-47.78697586	5.307507992	-0.2700122893	1.0
[LeftEye]
34	30.6760006	64.09500122	92.83599854	0	0	0	1.0
35	30.6760006	64.09500122	92.83599854	0	0	0	1.0
36	30.6760006	64.09500122	92.83599854	0	0	0	1.0
37	30.6760006	64.09500122	92.83599854	0	0	0	1.0
[RightEye]
34	-30.6760006	64.09500122	92.83499908	0	0	0	1.0
35	-30.6760006	64.09500122	92.83499908	0	0	0	1.0
36	-30.6760006	64.09500122	92.83499908	0	0	0	1.0
37	-30.6760006	64.09500122	92.83499908	0	0	0	1.0
[LeftShoulder]
34	45.70400238	109.4599991	-26.28000069	1.096381903	-17.46002579	-3.378406525	1.0
35	45.70400238	109.4599991	-26.28000069	1.140551448	-19.05110931	-3.192274809	1.0
36	45.70400238	109.4599991	-26.28000069	1.448877931	-20.29270172	-3.800594807	1.0
37	45.70400238	109.4599991	-26.28000069	1.95478487	-20.93151855	-4.655675411	1.0
[LeftArm]
34	105.923996	-5.24600029	-22.32099915	-45.75720215	69.88150787	-102.6608963	1.0
35	105.923996	-5.24600029	-22.32099915	-68.16210938	67.38452148	-129.7186584	1.0
36	105.923996	-5.24600029	-22.32099915	-67.38834381	60.75403976	-136.1085815	1.0
37	105.923996	-5.24600029	-22.32099915	-53.29059982	54.56347656	-126.175087	1.0
[LeftForeArm]
34	278.414978	-0.0009999999311	0	-355.7978516	-28.74143219	358.0400391	1.0
35	278.414978	-0.0009999999311	0	-356.2940369	-27.19562149	358.3282471	1.0
36	278.414978	-0.0009999999311	0	-357.4892883	-25.97682571	358.9417725	1.0
37	278.414978	-0.0009999999311	0	-358.4997864	-25.02430534	359.4599915	1.0
[LeftHand]
34	283.2879944	0	0	23.47460747	6.602576733	-9.040521622	1.0
35	283.2879944	0	0	4.108316422	8.082139969	-0.2157563269	1.0
36	283.2879944	0	0	-15.19831085	11.27984142	3.712468147	1.0
37	283.2879944	0	0	-24.0521946	14.86329174	2.086860657	1.0
[LeftHandThumb1]
34	24.6609993	-15.75	26.8239994	-4.877800465	0.02698440291	12.05487156	1.0
35	24.6609993	-15.75	26.8239994	-5.338100433	-0.8832110167	12.10383701	1.0
36	24.6609993	-15.75	26.8239994	-5.477609158	-1.293999076	12.18398857	1.0
37	24.6609993	-15.75	26.8239994	-5.399365425	-1.372435212	12.27709579	1.0
[LeftHandThumb2]
34	32.29800034	-18.64699936	18.64699936	3.366264105	8.141643524	1.609167814	1.0
35	32.29800034	-18.64699936	18.64699936	3.291298151	6.907275677	0.6551506519	1.0
36	32.29800034	-18.64699936	18.64699936	3.285924911	6.397885323	0.1947134584	1.0
37	32.29800034	-18.64699936	18.64699936	3.323378325	6.375152588	0.06338777393	1.0
[LeftHandThumb3]
34	26.52600098	-15.31499958	15.31499958	3.601811159e-06	-8.438974328e-05	-6.943767221e-05	1.0
35	26.52600098	-15.31499958	15.31499958	3.601811159e-06	-8.438974328e-05	-6.943767221e-05	1.0
36	26.52600098	-15.31499958	15.31499958	3.601811159e-06	-8.438974328e-05	-6.943767221e-05	1.0
37	26.52600098	-15.31499958	15.31499958	3.601811159e-06	-8.438974328e-05	-6.943767221e-05	1.0
[LeftHandThumb4]
34	19.54599953	-11.28499985	11.28499985	0	0	0	1.0
35	19.54599953	-11.28499985	11.28499985	0	0	0	1.0
36	19.54599953	-11.28499985	11.28499985	0	0	0	1.0
37	19.54599953	-11.28499985	11.28499985	0	0	0	1.0
[LeftHandIndex1]
34	91.09299469	-5.170999527	22.60099792	0.02418801561	-0.9774537086	-9.663931847	1.0
35	91.09299469	-5.170999527	22.60099792	0.07371678203	-0.8354079127	-8.965245247	1.0
36	91.09299469	-5.170999527	22.60099792	0.09419997782	-0.7778940201	-8.680880547	1.0
37	91.09299469	-5.170999527	22.60099792	0.09469040483	-0.7765443921	-8.674261093	1.0
[LeftHandIndex2]
34	36.76399994	0	0	-0.3813624382	0.2977208793	-20.38363266	1.0
35	36.76399994	0	0	-0.2246584445	0.6165234447	-17.89356995	1.0
36	36.76399994	0	0	-0.1557376087	0.7435880303	-16.87996101	1.0
37	36.76399994	0	0	-0.1541658044	0.7465741634	-16.85637665	1.0
[LeftHandIndex3]
34	28.83100128	0	0	-1.432096042e-06	3.907105395e-07	1.552835329e-06	1.0
35	28.83100128	0	0	-1.432096042e-06	3.907105395e-07	1.552835329e-06	1.0
36	28.83100128	0	0	-1.432096042e-06	3.907105395e-07	1.552835329e-06	1.0
37	28.83100128	0	0	-1.432096042e-06	3.907105395e-07	1.552835329e-06	1.0
[LeftHandIndex4]
34	23.92700005	0	0	0	0	0	1.0
35	23.92700005	0	0	0	0	0	1.0
36	23.92700005	0	0	0	0	0	1.0
37	23.92700005	0	0	0	0	0	1.0
[LeftHandMiddle1]
34	95.33399963	0	0	-0.6670196652	0.00940396823	-17.50749397	1.0
35	95.33399963	0	0	-0.5900541544	0.127016589	-16.4472599	1.0
36	95.33399963	0	0	-0.5579442978	0.1743258983	-16.01578903	1.0
37	95.33399963	0	0	-0.5571897626	0.1754556447	-16.00576591	1.0
[LeftHandMiddle2]
34	36.98199844	0	0	-0.3554893136	-1.214007497	-17.96009254	1.0
35	36.98199844	0	0	-0.2499461621	-0.9096176624	-15.32338428	1.0
36	36.98199844	0	0	-0.2017966956	-0.7876659036	-14.25036526	1.0
37	36.98199844	0	0	-0.2007030845	-0.784835577	-14.22539043	1.0
[LeftHandMiddle3]
34	29.50900078	0	0	0	-3.180554719e-15	-7.951386796e-16	1.0
35	29.50900078	0	0	0	-3.180554719e-15	-7.951386796e-16	1.0
36	29.50900078	0	0	0	-3.180554719e-15	-7.951386796e-16	1.0
37	29.50900078	0	0	0	-3.180554719e-15	-7.951386796e-16	1.0
[LeftHandMiddle4]
34	28.3390007	0	0	0	0	0	1.0
35	28.3390007	0	0	0	0	0	1.0
36	28.3390007	0	0	0	0	0	1.0
37	28.3390007	0	0	0	0	0	1.0
[LeftHandRing1]
34	91.04499817	-0.4390000105	-18.65100098	-2.932470798	5.667439938	-28.51404381	1.0
35	91.04499817	-0.4390000105	-18.65100098	-2.887714863	5.851205826	-27.36267662	1.0
36	91.04499817	-0.4390000105	-18.65100098	-2.8684237	5.925538063	-26.89398766	1.0
37	91.04499817	-0.4390000105	-18.65100098	-2.867971897	5.927294254	-26.88310432	1.0
[LeftHandRing2]
34	31.54000092	0	0	1.229387879	-2.294557571	-26.875597	1.0
35	31.54000092	0	0	1.029057622	-2.185164928	-24.23024559	1.0
36	31.54000092	0	0	0.9494904876	-2.13722682	-23.15406799	1.0
37	31.54000092	0	0	0.9476178288	-2.136130095	-23.12901688	1.0
[LeftHandRing3]
34	29.37700081	0	0	1.590277359e-15	3.180554719e-15	-7.951386796e-16	1.0
35	29.37700081	0	0	1.590277359e-15	3.180554719e-15	-7.951386796e-16	1.0
36	29.37700081	0	0	1.590277359e-15	3.180554719e-15	-7.951386796e-16	1.0
37	29.37700081	0	0	1.590277359e-15	3.180554719e-15	-7.951386796e-16	1.0
[LeftHandRing4]
34	26.47500038	0	0	0	0	0	1.0
35	26.47500038	0	0	0	0	0	1.0
36	26.47500038	0	0	0	0	0	1.0
37	26.47500038	0	0	0	0	0	1.0
[LeftHandPinky1]
34	80.77799988	-4.887000084	-38.06099701	-3.802016497	11.09450817	-27.31377983	1.0
35	80.77799988	-4.887000084	-38.06099701	-3.783360004	11.4454031	-26.14694595	1.0
36	80.77799988	-4.887000084	-38.06099701	-3.773622513	11.58826923	-25.66710854	1.0
37	80.77799988	-4.887000084	-38.06099701	-3.771835804	11.59252644	-25.64821053	1.0
[LeftHandPinky2]
34	36	0	0	4.11479044	-4.768194199	-39.23810196	1.0
35	36	0	0	3.895763636	-4.8401618	-37.76661682	1.0
36	36	0	0	3.807817698	-4.866380215	-37.1894989	1.0
37	36	0	0	3.808862448	-4.865398407	-37.21229172	1.0
[LeftHandPinky3]
34	21.14200211	0	0	3.226109357e-06	2.925280342e-06	-5.739977951e-06	1.0
35	21.14200211	0	0	3.226109357e-06	2.925280342e-06	-5.739977951e-06	1.0
36	21.14200211	0	0	3.226109357e-06	2.925280342e-06	-5.739977951e-06	1.0
37	21.14200211	0	0	3.226109357e-06	2.925280342e-06	-5.739977951e-06	1.0
[LeftHandPinky4]
34	19.75699997	0	0	0	0	0	1.0
35	19.75699997	0	0	0	0	0	1.0
36	19.75699997	0	0	0	0	0	1.0
37	19.75699997	0	0	0	0	0	1.0
[RightShoulder]
34	-45.70000076	109.4620056	-26.28000069	0.5738449693	2.120090008	7.078038692	1.0
35	-45.70000076	109.4620056	-26.28000069	0.2437845767	0.9234644175	4.46873045	1.0
36	-45.70000076	109.4620056	-26.28000069	0.2564298213	1.228368402	4.517424107	1.0
37	-45.70000076	109.4620056	-26.28000069	0.9246889353	4.503986835	7.769439697	1.0
[RightArm]
34	-105.9280014	-5.248000145	-22.32099915	17.3092308	-53.05873489	38.38539505	1.0
35	-105.9280014	-5.248000145	-22.32099915	6.511304379	-63.70422363	44.82290649	1.0
36	-105.9280014	-5.248000145	-22.32099915	-17.95383453	-67.31004333	65.07792664	1.0
37	-105.9280014	-5.248000145	-22.32099915	-28.63869476	-58.36311722	75.17176056	1.0
[RightForeArm]
34	-278.414978	0	0	10.42926311	34.51495361	1.823512912	1.0
35	-278.414978	0	0	6.867158413	35.39482117	2.6264956	1.0
36	-278.414978	0	0	3.967270613	35.42173004	3.087594271	1.0
37	-278.414978	0	0	3.970150948	28.91657448	1.683519483	1.0
[RightHand]
34	-283.2879944	0	0.0009999999311	21.08550262	15.66318417	-5.846286297	1.0
35	-283.2879944	0	0.0009999999311	19.88607979	-0.5283300281	-6.359972	1.0
36	-283.2879944	0	0.0009999999311	15.59722137	-12.07580376	-9.079010963	1.0
37	-283.2879944	0	0.0009999999311	11.0554781	-9.10552597	-10.26992226	1.0
[RightHandPinky1]
34	-80.76699829	-4.885000229	-38.06000137	-0.6941341758	-10.97260094	28.34914589	1.0
35	-80.76699829	-4.885000229	-38.06000137	-0.6459937096	-11.39558125	26.58088493	1.0
36	-80.76699829	-4.885000229	-38.06000137	-0.6227310896	-11.56717491	25.85586166	1.0
37	-80.76699829	-4.885000229	-38.06000137	-0.6206560731	-11.57209969	25.83127594	1.0
[RightHandPinky2]
34	-36	0	0.0009999999311	4.792730808	6.765436172	38.88335419	1.0
35	-36	0	0.0009999999311	4.560715199	6.772474766	37.61545944	1.0
36	-36	0	0.0009999999311	4.468849659	6.773405552	37.12142944	1.0
37	-36	0	0.0009999999311	4.471021175	6.773397446	37.14631271	1.0
[RightHandPinky3]
34	-21.14200211	0	0	-1.590277359e-15	0	-7.951386796e-16	1.0
35	-21.14200211	0	0	-1.590277359e-15	0	-7.951386796e-16	1.0
36	-21.14200211	0	0	-1.590277359e-15	0	-7.951386796e-16	1.0
37	-21.14200211	0	0	-1.590277359e-15	0	-7.951386796e-16	1.0
[RightHandPinky4]
34	-19.75699997	0	0	0	0	0	1.0
35	-19.75699997	0	0	0	0	0	1.0
36	-19.75699997	0	0	0	0	0	1.0
37	-19.75699997	0	0	0	0	0	1.0
[RightHandRing1]
34	-91.03599548	-0.4390000105	-18.65100098	-1.512294054	-5.821023464	28.3457489	1.0
35	-91.03599548	-0.4390000105	-18.65100098	-1.413636923	-5.966339111	26.7245636	1.0
36	-91.03599548	-0.4390000105	-18.65100098	-1.371476173	-6.024544716	26.06464005	1.0
37	-91.03599548	-0.4390000105	-18.65100098	-1.370507598	-6.025915146	26.0492878	1.0
[RightHandRing2]
34	-31.54000092	0	0	1.244423747	2.780438662	25.36374474	1.0
35	-31.54000092	0	0	1.056028843	2.634335995	23.15556717	1.0
36	-31.54000092	0	0	0.9815348983	2.572203875	22.25733566	1.0
37	-31.54000092	0	0	0.9798032045	2.570773125	22.23642921	1.0
[RightHandRing3]
34	-29.37700081	0	0	5.740008078e-07	-7.531911024e-07	-2.69121324e-06	1.0
35	-29.37700081	0	0	5.740008078e-07	-7.531911024e-07	-2.69121324e-06	1.0
36	-29.37700081	0	0	5.740008078e-07	-7.531911024e-07	-2.69121324e-06	1.0
37	-29.37700081	0	0	5.740008078e-07	-7.531911024e-07	-2.69121324e-06	1.0
[RightHandRing4]
34	-26.47500038	0	0	0	0	0	1.0
35	-26.47500038	0	0	0	0	0	1.0
36	-26.47500038	0	0	0	0	0	1.0
37	-26.47500038	0	0	0	0	0	1.0
[RightHandMiddle1]
34	-95.32500458	0	0	-1.936223865	0.2078161985	19.44796944	1.0
35	-95.32500458	0	0	-1.877749324	0.1108886302	18.59566689	1.0
36	-95.32500458	0	0	-1.85342896	0.0717895925	18.2488308	1.0
37	-95.32500458	0	0	-1.852851629	0.07086531818	18.24076271	1.0
[RightHandMiddle2]
34	-36.98199844	0	0	-0.5153078437	1.111951947	20.50048637	1.0
35	-36.98199844	0	0	-0.3972938061	0.8328707814	17.65797424	1.0
36	-36.98199844	0	0	-0.3441504836	0.7216079235	16.50119209	1.0
37	-36.98199844	0	0	-0.3429623842	0.7190163136	16.47426796	1.0
[RightHandMiddle3]
34	-29.50900078	0	0	1.856611448e-06	-0.002022909233	1.577868488e-06	1.0
35	-29.50900078	0	0	1.856611448e-06	-0.002022909233	1.577868488e-06	1.0
36	-29.50900078	0	0	1.856611448e-06	-0.002022909233	1.577868488e-06	1.0
37	-29.50900078	0	0	1.856611448e-06	-0.002022909233	1.577868488e-06	1.0
[RightHandMiddle4]
34	-28.3390007	0	0.0009999999311	0	0	0	1.0
35	-28.3390007	0	0.0009999999311	0	0	0	1.0
36	-28.3390007	0	0.0009999999311	0	0	0	1.0
37	-28.3390007	0	0.0009999999311	0	0	0	1.0
[RightHandIndex1]
34	-91.08300018	-5.167999744	22.60099792	-1.211552024	0.9903891087	9.793649673	1.0
35	-91.08300018	-5.167999744	22.60099792	-1.154112458	0.8391823173	9.002770424	1.0
36	-91.08300018	-5.167999744	22.60099792	-1.130324006	0.7780110836	8.680873871	1.0
37	-91.08300018	-5.167999744	22.60099792	-1.129775286	0.7765879035	8.673377991	1.0
[RightHandIndex2]
34	-36.76399994	0	0	-0.4065230191	-0.8053091764	19.62307549	1.0
35	-36.76399994	0	0	-0.2674855888	-1.015160084	17.66010284	1.0
36	-36.76399994	0	0	-0.2082367241	-1.098747015	16.86112404	1.0
37	-36.76399994	0	0	-0.2068930417	-1.10072732	16.84255028	1.0
[RightHandIndex3]
34	-28.83100128	0	0	-3.180554719e-15	0	0	1.0
35	-28.83100128	0	0	-3.180554719e-15	0	0	1.0
36	-28.83100128	0	0	-3.180554719e-15	0	0	1.0
37	-28.83100128	0	0	-3.180554719e-15	0	0	1.0
[RightHandIndex4]
34	-23.92700005	0	0	0	0	0	1.0
35	-23.92700005	0	0	0	0	0	1.0
36	-23.92700005	0	0	0	0	0	1.0
37	-23.92700005	0	0	0	0	0	1.0
[RightHandThumb1]
34	-24.64799881	-15.72700024	26.82600021	-5.836051464	0.5191866159	-11.91296577	1.0
35	-24.64799881	-15.72700024	26.82600021	-5.615927219	1.040382862	-12.06760216	1.0
36	-24.64799881	-15.72700024	26.82600021	-5.477913857	1.294083238	-12.18431091	1.0
37	-24.64799881	-15.72700024	26.82600021	-5.393215656	1.368863344	-12.27830124	1.0
[RightHandThumb2]
34	-32.29800034	-18.64699936	18.64699936	4.429261208	-8.271090508	-1.454306126	1.0
35	-32.29800034	-18.64699936	18.64699936	3.597284555	-6.945273876	-0.6000300646	1.0
36	-32.29800034	-18.64699936	18.64699936	3.285828352	-6.396658421	-0.1932773739	1.0
37	-32.29800034	-18.64699936	18.64699936	3.316115141	-6.37302494	-0.06309282035	1.0
[RightHandThumb3]
34	-26.52600098	-15.31399918	15.31399918	-3.81245151e-08	-0.00121095567	-0.001221005921	1.0
35	-26.52600098	-15.31399918	15.31399918	-3.81245151e-08	-0.00121095567	-0.001221005921	1.0
36	-26.52600098	-15.31399918	15.31399918	-3.81245151e-08	-0.00121095567	-0.001221005921	1.0
37	-26.52600098	-15.31399918	15.31399918	-3.81245151e-08	-0.00121095567	-0.001221005921	1.0
[RightHandThumb4]
34	-19.54599953	-11.28499985	11.28499985	0	0	0	1.0
35	-19.54599953	-11.28499985	11.28499985	0	0	0	1.0
36	-19.54599953	-11.28499985	11.28499985	0	0	0	1.0
37	-19.54599953	-11.28499985	11.28499985	0	0	0	1.0
[LeftUpLeg]
34	82.07800293	-67.51699829	-15.99599934	-64.95207977	21.99049759	0.4717824459	1.0
35	82.07800293	-67.51699829	-15.99599934	-79.16123199	22.69466019	-0.02555866167	1.0
36	82.07800293	-67.51699829	-15.99599934	-91.17012787	22.08737183	-0.9185064435	1.0
37	82.07800293	-67.51699829	-15.99599934	-97.13843536	21.10361481	0.05856301263	1.0
[LeftLeg]
34	0	-443.7049866	2.845999956	77.87215424	5.063542843	-6.866449833	1.0
35	0	-443.7049866	2.845999956	88.66950989	5.839670181	-7.236252308	1.0
36	0	-443.7049866	2.845999956	95.9513092	5.974555492	-7.070651054	1.0
37	0	-443.7049866	2.845999956	100.195816	5.600355148	-6.127056122	1.0
[LeftFoot]
34	0	-444.2789917	-29.8219986	-27.2553196	-1.286521316	-7.213521481	1.0
35	0	-444.2789917	-29.8219986	-28.96035576	-1.190926909	-6.659081936	1.0
36	0	-444.2789917	-29.8219986	-27.66249084	-1.122761369	-7.067677021	1.0
37	0	-444.2789917	-29.8219986	-25.7532196	-1.077634692	-7.709799767	1.0
[LeftToeBase]
34	0	-87.28699493	107.1060028	-5.430401802	-0.004698439036	-0.04210268706	1.0
35	0	-87.28699493	107.1060028	-3.480609894	-4.72853344e-06	1.890174417e-06	1.0
36	0	-87.28699493	107.1060028	-0.9596141577	4.103913852e-06	1.252903189e-06	1.0
37	0	-87.28699493	107.1060028	-1.249249458	-5.369221981e-06	1.249119634e-07	1.0
[RightUpLeg]
34	-82.07800293	-67.51699829	-15.99599934	-69.52986908	-5.464231491	-1.926336169	1.0
35	-82.07800293	-67.51699829	-15.99599934	-82.87665558	-4.105922222	-0.6185896397	1.0
36	-82.07800293	-67.51699829	-15.99599934	-93.54415894	-2.827351809	-0.3415336609	1.0
37	-82.07800293	-67.51699829	-15.99599934	-98.77780151	-1.898308516	0.1268360615	1.0
[RightLeg]
34	0	-443.7049866	2.861999989	77.27088928	2.233864546	3.597641706	1.0
35	0	-443.7049866	2.861999989	87.4409256	1.074171424	2.20493865	1.0
36	0	-443.7049866	2.861999989	94.37099457	1.08805275	-0.6205931902	1.0
37	0	-443.7049866	2.861999989	98.29885864	1.555071115	-2.521725893	1.0
[RightFoot]
34	0	-444.2770081	-29.83799934	-25.36200142	0.2250487357	2.793051481	1.0
35	0	-444.2770081	-29.83799934	-25.58801079	0.05241117626	3.142379284	1.0
36	0	-444.2770081	-29.83799934	-24.70903778	0.3653798401	4.634139538	1.0
37	0	-444.2770081	-29.83799934	-23.13209343	0.4457668662	5.179604053	1.0
[RightToeBase]
34	0	-87.28699493	107.1060028	-3.434662819	-2.648110353e-07	-2.109553208e-07	1.0
35	0	-87.28699493	107.1060028	-3.150094986	2.312497827e-06	-1.166130687e-06	1.0
36	0	-87.28699493	107.1060028	-2.891696215	-7.440748391e-07	-4.961854643e-07	1.0
37	0	-87.28699493	107.1060028	-2.877472162	5.892560395e-08	-2.049134309e-06	1.0
[EndOfFile]
